<?xml version="1.0" encoding="utf-8"?>
<!-- Generator: Adobe Illustrator 15.0.0, SVG Export Plug-In  -->
<!DOCTYPE svg PUBLIC "-//W3C//DTD SVG 1.1//EN" "http://www.w3.org/Graphics/SVG/1.1/DTD/svg11.dtd" [
	<!ENTITY ns_flows "http://ns.adobe.com/Flows/1.0/">
]>
<svg version="1.1"
	 xmlns="http://www.w3.org/2000/svg" xmlns:xlink="http://www.w3.org/1999/xlink" xmlns:a="http://ns.adobe.com/AdobeSVGViewerExtensions/3.0/"
	 x="0px" y="0px" width="202px" height="90px" viewBox="-0.537 -0.256 202 90" enable-background="new -0.537 -0.256 202 90"
	 xml:space="preserve">
<defs>
</defs>
<path fill-rule="evenodd" clip-rule="evenodd" fill="#7C2B83" d="M39.6,35.717c-2.431-0.505-4.061-2.749-4.4-4.398
	c0.267-3.506,4.342-5.143,5.028-8.801C43.835,3.278,12.268,7.76,21.37,26.29c6.272,12.767,25.568,27.189,32.291,37.353
	c2.815-3.181,4.971-8.314,6.682-11.584c3.012,0.127,4.907,0.941,6.912,2.515c-1.257,6.077-4.151,10.513-6.912,15.085
	c3.218,5.999,5.869,6.734,10.055,17.598c-1.372,1.982-5.818,2.134-8.8,1.258c-2.347-3.311-4.162-7.152-6.914-10.057
	C37.83,96.186-0.167,89.679,0,62.744c0.082-13.049,8.03-19.628,16.97-25.141c-4.069-5.417-8.04-10.109-7.542-18.857
	C10.45,0.823,36.463-6.846,47.14,7.434C53.607,16.082,50.628,31.764,39.6,35.717z M22.628,44.517
	c-4.634,4.173-10.11,7.55-11.313,13.827C7.218,79.705,37.104,84.621,47.14,70.915C39.331,61.754,31.252,52.862,22.628,44.517z"/>
<circle fill="#7C2B83" cx="79.107" cy="85.503" r="3.52"/>
<g>
	<g>
		<path d="M103.461,79.6c0-0.021,0.01-0.041,0.029-0.061c0.019-0.019,0.039-0.027,0.061-0.027h0.592
			c0.021,0,0.042,0.009,0.061,0.027c0.02,0.02,0.029,0.04,0.029,0.061v4.282c0,0.021-0.01,0.042-0.029,0.061
			c-0.019,0.019-0.039,0.028-0.061,0.028h-0.592c-0.021,0-0.042-0.01-0.061-0.028c-0.02-0.019-0.029-0.039-0.029-0.061V79.6z"/>
		<path d="M111.028,79.539c0.02,0.02,0.028,0.04,0.028,0.061v4.353c0,0.021-0.009,0.04-0.028,0.058
			c-0.02,0.017-0.039,0.025-0.061,0.025h-0.102c-0.068,0-0.128-0.025-0.179-0.076l-2.549-2.811
			c-0.004-0.008-0.017-0.013-0.038-0.013c-0.017,0.009-0.025,0.021-0.025,0.038l-0.007,2.708c0,0.021-0.008,0.042-0.025,0.061
			c-0.017,0.019-0.038,0.028-0.063,0.028h-0.586c-0.021,0-0.042-0.01-0.061-0.028c-0.02-0.019-0.029-0.039-0.029-0.061V79.53
			c0-0.021,0.01-0.04,0.029-0.058c0.019-0.017,0.039-0.025,0.061-0.025h0.114c0.063,0,0.119,0.025,0.166,0.076l2.542,2.76
			c0.009,0.017,0.021,0.021,0.038,0.012c0.013-0.004,0.02-0.014,0.02-0.031l0.006-2.664c0-0.021,0.009-0.041,0.025-0.061
			c0.018-0.019,0.039-0.027,0.064-0.027h0.599C110.989,79.512,111.008,79.521,111.028,79.539z"/>
		<path d="M113.816,83.5c-0.025-0.025-0.043-0.049-0.051-0.067c-0.009-0.019-0.003-0.048,0.019-0.086v0.007l0.229-0.402
			c0.021-0.033,0.049-0.054,0.083-0.061c0.034-0.006,0.062,0,0.083,0.017l0.013,0.007c0.025,0.021,0.078,0.056,0.159,0.104
			c0.08,0.049,0.174,0.099,0.28,0.149s0.217,0.096,0.331,0.135c0.115,0.037,0.221,0.057,0.318,0.057
			c0.179,0,0.326-0.052,0.443-0.156c0.117-0.104,0.175-0.23,0.175-0.379c0-0.17-0.069-0.318-0.21-0.445
			c-0.141-0.128-0.351-0.247-0.631-0.357c-0.148-0.06-0.295-0.129-0.439-0.211c-0.145-0.08-0.272-0.175-0.383-0.283
			c-0.11-0.107-0.199-0.233-0.268-0.375c-0.067-0.143-0.102-0.308-0.102-0.494c0-0.141,0.028-0.285,0.086-0.434
			s0.145-0.281,0.262-0.398c0.116-0.117,0.264-0.211,0.442-0.283s0.389-0.104,0.631-0.096c0.161,0.009,0.314,0.031,0.459,0.066
			c0.145,0.037,0.274,0.079,0.392,0.128s0.216,0.096,0.296,0.14c0.081,0.045,0.139,0.08,0.173,0.105
			c0.025,0.018,0.041,0.043,0.048,0.076c0.006,0.035,0.001,0.064-0.017,0.09c-0.038,0.06-0.079,0.121-0.124,0.185
			s-0.086,0.126-0.124,0.185c-0.021,0.034-0.049,0.061-0.083,0.076c-0.034,0.018-0.066,0.016-0.096-0.006
			c-0.013-0.008-0.053-0.033-0.121-0.073s-0.148-0.083-0.242-0.128c-0.094-0.044-0.194-0.084-0.303-0.121
			c-0.108-0.035-0.207-0.054-0.296-0.054c-0.098,0-0.184,0.015-0.258,0.045c-0.075,0.03-0.138,0.067-0.188,0.114
			s-0.089,0.1-0.114,0.156c-0.025,0.058-0.038,0.113-0.038,0.169c0,0.161,0.064,0.296,0.194,0.405
			c0.129,0.107,0.323,0.226,0.583,0.354c0.152,0.076,0.308,0.156,0.465,0.238c0.157,0.083,0.299,0.179,0.427,0.287
			c0.127,0.107,0.232,0.235,0.315,0.382s0.124,0.319,0.124,0.52c0,0.161-0.034,0.319-0.102,0.475
			c-0.068,0.155-0.165,0.292-0.29,0.411s-0.277,0.213-0.456,0.28c-0.178,0.067-0.38,0.096-0.604,0.083
			c-0.2-0.009-0.385-0.037-0.555-0.083c-0.17-0.047-0.319-0.099-0.449-0.156s-0.237-0.113-0.322-0.169
			c-0.085-0.055-0.142-0.098-0.172-0.127H113.816z"/>
		<path d="M122.487,79.539c0.017,0.02,0.025,0.04,0.025,0.061v0.529c0,0.021-0.009,0.043-0.025,0.064
			c-0.017,0.021-0.038,0.031-0.063,0.031h-1.179c-0.025,0-0.039,0.013-0.039,0.038v3.619c0,0.021-0.008,0.042-0.025,0.061
			c-0.017,0.019-0.038,0.028-0.063,0.028h-0.586c-0.021,0-0.042-0.01-0.061-0.028c-0.02-0.019-0.028-0.039-0.028-0.061v-3.619
			c0-0.025-0.014-0.038-0.039-0.038h-1.185c-0.025,0-0.048-0.011-0.067-0.031c-0.019-0.021-0.028-0.043-0.028-0.064V79.6
			c0-0.021,0.01-0.041,0.028-0.061c0.02-0.019,0.042-0.027,0.067-0.027h3.205C122.449,79.512,122.47,79.521,122.487,79.539z"/>
		<path d="M125.291,79.6c0-0.021,0.01-0.041,0.029-0.061c0.019-0.019,0.039-0.027,0.061-0.027h0.592
			c0.021,0,0.042,0.009,0.061,0.027c0.02,0.02,0.029,0.04,0.029,0.061v4.282c0,0.021-0.01,0.042-0.029,0.061
			c-0.019,0.019-0.039,0.028-0.061,0.028h-0.592c-0.021,0-0.042-0.01-0.061-0.028c-0.02-0.019-0.029-0.039-0.029-0.061V79.6z"/>
		<path d="M132.261,79.539c0.017,0.02,0.025,0.04,0.025,0.061v0.529c0,0.021-0.009,0.043-0.025,0.064
			c-0.017,0.021-0.038,0.031-0.063,0.031h-1.179c-0.025,0-0.039,0.013-0.039,0.038v3.619c0,0.021-0.008,0.042-0.025,0.061
			c-0.017,0.019-0.038,0.028-0.063,0.028h-0.586c-0.021,0-0.042-0.01-0.061-0.028c-0.02-0.019-0.028-0.039-0.028-0.061v-3.619
			c0-0.025-0.014-0.038-0.039-0.038h-1.185c-0.025,0-0.048-0.011-0.067-0.031c-0.019-0.021-0.028-0.043-0.028-0.064V79.6
			c0-0.021,0.01-0.041,0.028-0.061c0.02-0.019,0.042-0.027,0.067-0.027h3.205C132.223,79.512,132.245,79.521,132.261,79.539z"/>
		<path d="M134.962,79.6c0-0.021,0.009-0.041,0.025-0.061c0.017-0.019,0.036-0.027,0.058-0.027h0.605
			c0.025,0,0.046,0.009,0.063,0.027c0.017,0.02,0.025,0.04,0.025,0.061v2.645c0,0.141,0.023,0.273,0.07,0.398
			c0.046,0.125,0.113,0.234,0.2,0.328s0.19,0.167,0.31,0.22c0.118,0.054,0.252,0.08,0.401,0.08c0.144,0,0.276-0.026,0.397-0.08
			c0.121-0.053,0.225-0.126,0.31-0.22s0.151-0.201,0.2-0.324s0.073-0.256,0.073-0.396V79.6c0-0.021,0.009-0.041,0.026-0.061
			c0.017-0.019,0.038-0.027,0.063-0.027h0.593c0.021,0,0.042,0.009,0.063,0.027c0.021,0.02,0.031,0.04,0.031,0.061v2.689
			c0,0.242-0.044,0.469-0.134,0.679c-0.089,0.21-0.212,0.396-0.369,0.554c-0.157,0.16-0.343,0.285-0.558,0.377
			c-0.215,0.091-0.447,0.137-0.697,0.137c-0.251,0-0.483-0.046-0.698-0.137c-0.214-0.092-0.4-0.217-0.558-0.377
			c-0.157-0.158-0.28-0.344-0.369-0.554s-0.134-0.437-0.134-0.679V79.6z"/>
		<path d="M144.61,79.539c0.017,0.02,0.025,0.04,0.025,0.061v0.529c0,0.021-0.009,0.043-0.025,0.064
			c-0.017,0.021-0.038,0.031-0.063,0.031h-1.179c-0.025,0-0.039,0.013-0.039,0.038v3.619c0,0.021-0.008,0.042-0.025,0.061
			c-0.017,0.019-0.038,0.028-0.063,0.028h-0.586c-0.021,0-0.042-0.01-0.061-0.028c-0.02-0.019-0.028-0.039-0.028-0.061v-3.619
			c0-0.025-0.014-0.038-0.039-0.038h-1.185c-0.025,0-0.048-0.011-0.067-0.031c-0.019-0.021-0.028-0.043-0.028-0.064V79.6
			c0-0.021,0.01-0.041,0.028-0.061c0.02-0.019,0.042-0.027,0.067-0.027h3.205C144.572,79.512,144.593,79.521,144.61,79.539z"/>
		<path d="M148.331,80.263v1.045c0,0.026,0.013,0.038,0.038,0.038h1.472c0.021,0,0.042,0.01,0.061,0.029
			c0.02,0.02,0.028,0.039,0.028,0.061v0.541c0,0.025-0.009,0.047-0.028,0.064c-0.019,0.017-0.039,0.025-0.061,0.025h-1.472
			c-0.025,0-0.038,0.012-0.038,0.038v1.114c0,0.025,0.013,0.039,0.038,0.039h1.784c0.025,0,0.047,0.01,0.063,0.031
			s0.025,0.043,0.025,0.064v0.528c0,0.021-0.009,0.042-0.025,0.061s-0.038,0.028-0.063,0.028h-2.498
			c-0.025,0-0.047-0.01-0.063-0.028s-0.025-0.039-0.025-0.061V79.6c0-0.021,0.009-0.041,0.025-0.061
			c0.017-0.019,0.038-0.027,0.063-0.027h2.498c0.025,0,0.047,0.009,0.063,0.027c0.017,0.02,0.025,0.04,0.025,0.061v0.529
			c0,0.021-0.009,0.043-0.025,0.064c-0.017,0.021-0.038,0.031-0.063,0.031h-1.784C148.343,80.225,148.331,80.237,148.331,80.263z"/>
	</g>
</g>
<path d="M72.799,27.004L70.026,43.21h-3.69l-2.695-9.694l-3.009,9.694h-3.689l-2.773-16.206h3.506l1.544,8.73l2.46-8.73h3.689
	l2.46,8.73l1.465-8.73H72.799z"/>
<path d="M94.141,43.21H81.11V27.004h12.796v3.232h-9.342v2.652h5.286v3.231h-5.286v3.858h9.577V43.21z"/>
<path d="M117.419,35.107c0,2.459-0.789,4.425-2.367,5.896c-1.579,1.471-3.677,2.206-6.294,2.206h-5.469V27.004h5.469
	c2.634,0,4.736,0.74,6.307,2.219C116.635,30.702,117.419,32.664,117.419,35.107z M113.992,35.107c0-1.527-0.449-2.721-1.348-3.582
	c-0.898-0.859-2.132-1.289-3.702-1.289h-2.198v9.742h2.198c1.57,0,2.804-0.43,3.702-1.29S113.992,36.635,113.992,35.107z"/>
<path d="M140.515,35.107c0,2.459-0.789,4.425-2.367,5.896c-1.579,1.471-3.677,2.206-6.294,2.206h-5.469V27.004h5.469
	c2.634,0,4.736,0.74,6.307,2.219C139.731,30.702,140.515,32.664,140.515,35.107z M137.087,35.107c0-1.527-0.449-2.721-1.348-3.582
	c-0.898-0.859-2.132-1.289-3.702-1.289h-2.198v9.742h2.198c1.57,0,2.804-0.43,3.702-1.29S137.087,36.635,137.087,35.107z"/>
<path d="M153.562,43.21h-3.506V27.004h3.506V43.21z"/>
<path d="M177.416,43.21h-3.009l-7.667-10.37v10.37h-3.454V27.004h3.454l7.248,9.912v-9.912h3.428V43.21z"/>
<path d="M201.114,35.252c0,2.557-0.638,4.57-1.91,6.041c-1.273,1.471-3.045,2.207-5.313,2.207c-2.425,0-4.3-0.805-5.626-2.412
	c-1.325-1.607-1.988-3.602-1.988-5.98c0-2.492,0.715-4.502,2.146-6.029s3.297-2.291,5.6-2.291c1.396,0,2.669,0.31,3.82,0.929
	c1.151,0.618,2.032,1.476,2.644,2.567l-3.088,1.544c-0.768-1.222-1.937-1.833-3.507-1.833c-1.256,0-2.255,0.463-2.996,1.387
	c-0.741,0.925-1.112,2.167-1.112,3.727c0,1.592,0.371,2.85,1.112,3.773c0.741,0.925,1.758,1.396,3.049,1.411
	c1.587-0.032,2.599-0.667,3.035-1.905h-3.088v-3.135H201.114z"/>
<path d="M88.626,68.065H75.595V51.859h12.796v3.232h-9.342v2.652h5.286v3.231h-5.286v3.858h9.577V68.065z"/>
<path d="M112.481,51.859l-6.097,16.206h-3.689l-6.333-16.206h3.689l4.475,11.383l4.317-11.383H112.481z"/>
<path d="M133.248,68.065h-13.031V51.859h12.796v3.232h-9.342v2.652h5.286v3.231h-5.286v3.858h9.577V68.065z"/>
<path d="M156.657,68.065h-3.009l-7.667-10.37v10.37h-3.454V51.859h3.454l7.248,9.912v-9.912h3.428V68.065z"/>
<path d="M178.915,55.092h-4.788v12.974h-3.402V55.092h-4.841v-3.232h13.031V55.092z"/>
<path d="M122.581,12.009c0.017,0.019,0.025,0.04,0.025,0.061v0.528c0,0.021-0.009,0.043-0.025,0.064s-0.038,0.031-0.063,0.031
	h-1.179c-0.025,0-0.039,0.014-0.039,0.039v3.619c0,0.021-0.008,0.041-0.025,0.061c-0.017,0.019-0.038,0.028-0.063,0.028h-0.586
	c-0.021,0-0.042-0.01-0.061-0.028c-0.02-0.02-0.028-0.039-0.028-0.061v-3.619c0-0.025-0.014-0.039-0.039-0.039h-1.185
	c-0.025,0-0.048-0.01-0.067-0.031c-0.019-0.021-0.028-0.043-0.028-0.064v-0.528c0-0.021,0.01-0.042,0.028-0.061
	c0.02-0.019,0.042-0.028,0.067-0.028h3.205C122.542,11.98,122.564,11.99,122.581,12.009z"/>
<path d="M128.608,12.016c0.029,0.027,0.044,0.061,0.044,0.099v4.173c0,0.043-0.015,0.079-0.044,0.109
	c-0.03,0.029-0.068,0.044-0.115,0.044h-0.407c-0.051,0-0.092-0.015-0.121-0.044c-0.03-0.03-0.045-0.066-0.045-0.109v-1.72
	c0-0.026-0.011-0.038-0.032-0.038h-1.866c-0.025,0-0.038,0.012-0.038,0.038v1.72c0,0.043-0.017,0.079-0.048,0.109
	c-0.032,0.029-0.067,0.044-0.105,0.044h-0.421c-0.047,0-0.086-0.015-0.117-0.044c-0.032-0.03-0.048-0.066-0.048-0.109v-4.173
	c0-0.038,0.016-0.071,0.048-0.099c0.031-0.027,0.07-0.042,0.117-0.042h0.421c0.038,0,0.073,0.015,0.105,0.042
	c0.031,0.027,0.048,0.061,0.048,0.099v1.631c0,0.025,0.013,0.038,0.038,0.038h1.866c0.021,0,0.032-0.013,0.032-0.038v-1.631
	c0-0.038,0.015-0.071,0.045-0.099c0.029-0.027,0.07-0.042,0.121-0.042h0.407C128.54,11.974,128.578,11.988,128.608,12.016z"/>
<path d="M132.546,12.732v1.045c0,0.025,0.013,0.038,0.038,0.038h1.472c0.021,0,0.042,0.009,0.061,0.028
	c0.02,0.02,0.028,0.039,0.028,0.061v0.542c0,0.025-0.009,0.046-0.028,0.063c-0.019,0.018-0.039,0.025-0.061,0.025h-1.472
	c-0.025,0-0.038,0.013-0.038,0.039v1.114c0,0.025,0.013,0.038,0.038,0.038h1.784c0.025,0,0.047,0.011,0.063,0.032
	c0.017,0.021,0.025,0.042,0.025,0.063v0.529c0,0.021-0.009,0.041-0.025,0.061c-0.017,0.019-0.038,0.028-0.063,0.028h-2.498
	c-0.025,0-0.047-0.01-0.063-0.028c-0.017-0.02-0.025-0.039-0.025-0.061v-4.282c0-0.021,0.009-0.042,0.025-0.061
	s0.038-0.028,0.063-0.028h2.498c0.025,0,0.047,0.01,0.063,0.028s0.025,0.04,0.025,0.061v0.528c0,0.021-0.009,0.043-0.025,0.064
	s-0.038,0.031-0.063,0.031h-1.784C132.559,12.693,132.546,12.707,132.546,12.732z"/>
</svg>
